<svg width="31" height="31" viewBox="0 0 31 31" fill="none" xmlns="http://www.w3.org/2000/svg">
<path d="M15.5363 15.4999C15.5363 12.6464 17.8494 10.3333 20.7029 10.3333C23.5564 10.3333 25.8695 12.6465 25.8695 15.4999C25.8695 18.3534 23.5563 20.6665 20.7029 20.6665C17.8494 20.6665 15.5363 18.3534 15.5363 15.4999Z" fill="white"/>
<path d="M5.20288 25.8334C5.20288 22.98 7.51607 20.6668 10.3695 20.6668L13.1229 19.2131L15.5362 20.6668V25.8334C15.5362 28.687 13.223 31.0001 10.3695 31.0001C7.51607 31.0001 5.20288 28.6869 5.20288 25.8334Z" fill="white"/>
<path d="M15.5363 0L12.7249 4.88432L15.5363 10.3333H20.6305C23.484 10.3333 25.7971 8.0201 25.7971 5.16665C25.7971 2.31319 23.4839 0 20.6305 0H15.5363Z" fill="white"/>
<path d="M5.13037 5.16665C5.13037 8.0201 7.44356 10.3333 10.297 10.3333L13.0378 11.3919L15.5361 10.3333V0H10.297C7.44356 0 5.13037 2.31319 5.13037 5.16665Z" fill="white"/>
<path d="M5.20288 15.5C5.20288 18.3535 7.51607 20.6666 10.3695 20.6666H15.5362V10.3333H10.3695C7.51607 10.3333 5.20288 12.6465 5.20288 15.5Z" fill="white"/>
</svg>
