<svg width="40" height="40" viewBox="0 0 40 40" fill="none" xmlns="http://www.w3.org/2000/svg">
<g id="suitcase 1" clip-path="url(#clip0_2716_89)">
<path id="Vector" d="M24.9999 10.8333C24.0799 10.8333 23.3333 10.0867 23.3333 9.16666V6.66666H16.6666V9.16666C16.6666 10.0867 15.9199 10.8333 14.9999 10.8333C14.0799 10.8333 13.3333 10.0867 13.3333 9.16666V6.66666C13.3333 4.82833 14.8283 3.33333 16.6666 3.33333H23.3333C25.1716 3.33333 26.6666 4.82833 26.6666 6.66666V9.16666C26.6666 10.0867 25.9199 10.8333 24.9999 10.8333Z" fill="white"/>
<path id="Vector_2" d="M21.1833 25.6333C20.8833 25.75 20.45 25.8333 20 25.8333C19.55 25.8333 19.1167 25.75 18.7167 25.6L0 19.3667V32.0833C0 34.6167 2.05 36.6667 4.58333 36.6667H35.4167C37.95 36.6667 40 34.6167 40 32.0833V19.3667L21.1833 25.6333Z" fill="white"/>
<path id="Vector_3" d="M40 12.9167V16.7333L20.4 23.2667C20.2667 23.3167 20.1333 23.3333 20 23.3333C19.8667 23.3333 19.7333 23.3167 19.6 23.2667L0 16.7333V12.9167C0 10.3833 2.05 8.33333 4.58333 8.33333H35.4167C37.95 8.33333 40 10.3833 40 12.9167Z" fill="white"/>
</g>
<defs>
<clipPath id="clip0_2716_89">
<rect width="40" height="40" fill="white"/>
</clipPath>
</defs>
</svg>
