<svg width="31" height="34" viewBox="0 0 31 34" fill="none" xmlns="http://www.w3.org/2000/svg">
<g clip-path="url(#clip0_2713_18)">
<path d="M15.5003 0.23584C6.9531 0.23584 0 7.64083 0 16.7433C0 25.8464 6.95342 33.2521 15.5 33.2521C24.0463 33.2521 30.999 25.8464 30.999 16.7433C30.9994 7.64117 24.0466 0.23584 15.5003 0.23584ZM1.56417 16.7433C1.56417 14.5919 1.99741 12.5487 2.7708 10.7033L9.41854 30.1014C4.77015 27.6952 1.56417 22.6182 1.56417 16.7433ZM15.5003 31.5865C14.1323 31.5865 12.812 31.3728 11.5635 30.9817L15.7445 18.0418L20.0289 30.5405C20.0566 30.6143 20.0904 30.6815 20.1281 30.745C18.6796 31.2877 17.1231 31.5865 15.5003 31.5865ZM17.4204 9.78462C18.2592 9.73762 19.0158 9.64328 19.0158 9.64328C19.7664 9.54859 19.6784 8.37361 18.9266 8.42061C18.9266 8.42061 16.6696 8.60895 15.212 8.60895C13.8431 8.60895 11.5413 8.42061 11.5413 8.42061C10.7901 8.37361 10.7025 9.59628 11.4533 9.64328C11.4533 9.64328 12.1645 9.73762 12.9147 9.78462L15.0858 16.1206L12.036 25.8619L6.96212 9.78496C7.80218 9.73831 8.55721 9.64362 8.55721 9.64362C9.30773 9.54928 9.21915 8.37361 8.46766 8.42164C8.46766 8.42164 6.2116 8.60998 4.75372 8.60998C4.49184 8.60998 4.18358 8.60277 3.85696 8.59214C6.34817 4.56219 10.6319 1.90175 15.5003 1.90175C19.1289 1.90175 22.4318 3.37897 24.9108 5.7979C24.8506 5.79447 24.7923 5.78589 24.7298 5.78589C23.3615 5.78589 22.39 7.05591 22.39 8.42026C22.39 9.64294 23.0519 10.6783 23.7583 11.901C24.2888 12.8897 24.9073 14.16 24.9073 15.9944C24.9073 17.2651 24.4492 18.7389 23.8465 20.7924L22.4566 25.7397L17.4204 9.78462ZM22.5059 29.5731L26.7626 16.4654C27.5586 14.3484 27.8224 12.6554 27.8224 11.149C27.8224 10.6032 27.7889 10.0958 27.7283 9.62269C28.8171 11.737 29.4365 14.1635 29.4358 16.744C29.4355 22.2192 26.6486 27.0001 22.5059 29.5731Z" fill="white"/>
</g>
<defs>
<clipPath id="clip0_2713_18">
<rect width="31" height="33.0163" fill="white" transform="translate(0 0.23584)"/>
</clipPath>
</defs>
</svg>
